REM DIRINDEX 1\8,1\2\11,1\3\12,1\3\14,1\5\15,1\5\16,1\6\17,1\6\18,1\4\19,1\4\20,1\4\21,1\4\22,1\7\23,1\7\24,1\7\25,1\2\9\26,1\2\9\27,1\2\10\28,1\2\10\29,1\2\10\30,1\2\10\31,1\2\10\32,1\3\13\33,1\3\13\34,1\3\13\35
REM DIRNAME cjc123,folder01,folder02,folder03,folder04,folder05,folder06,folder07,folder08,folder09,folder10,folder11,folder12,folder13,folder14,folder15,folder16,folder17,folder18,folder19,folder20,folder21,folder22,folder23,folder24,folder25,folder26,folder27,folder28,folder29,folder30,folder31,folder32,folder33,folder34
TITLE ""
FILE "1-08 008_UNIT1_SET6.mp3" MP3
  TRACK 01 AUDIO
    TITLE "11:cjc123_0463"
    INDEX 01 00:00:00
  TRACK 02 AUDIO
    TITLE "0:"
    INDEX 01 00:02:71
  TRACK 03 AUDIO
    TITLE "28:cjc123_0464"
    INDEX 01 00:03:43
  TRACK 04 AUDIO
    TITLE "0:"
    INDEX 01 00:04:68
  TRACK 05 AUDIO
    TITLE "29:cjc123_0465"
    INDEX 01 00:05:14
  TRACK 06 AUDIO
    TITLE "0:"
    INDEX 01 00:06:45
  TRACK 07 AUDIO
    TITLE "30:cjc123_0466"
    INDEX 01 00:06:55
  TRACK 08 AUDIO
    TITLE "0:"
    INDEX 01 00:08:03
  TRACK 09 AUDIO
    TITLE "31:cjc123_0467"
    INDEX 01 00:08:52
  TRACK 10 AUDIO
    TITLE "0:"
    INDEX 01 00:12:38
  TRACK 11 AUDIO
    TITLE "32:cjc123_0468"
    INDEX 01 00:13:02
  TRACK 12 AUDIO
    TITLE "0:"
    INDEX 01 00:16:24
  TRACK 13 AUDIO
    TITLE "28:cjc123_0469"
    INDEX 01 00:16:69
  TRACK 14 AUDIO
    TITLE "0:"
    INDEX 01 00:17:65
  TRACK 15 AUDIO
    TITLE "29:cjc123_0470"
    INDEX 01 00:18:13
  TRACK 16 AUDIO
    TITLE "0:"
    INDEX 01 00:19:32
  TRACK 17 AUDIO
    TITLE "30:cjc123_0471"
    INDEX 01 00:19:42
  TRACK 18 AUDIO
    TITLE "0:"
    INDEX 01 00:20:53
  TRACK 19 AUDIO
    TITLE "31:cjc123_0472"
    INDEX 01 00:21:33
  TRACK 20 AUDIO
    TITLE "0:"
    INDEX 01 00:24:47
  TRACK 21 AUDIO
    TITLE "32:cjc123_0473"
    INDEX 01 00:25:19
  TRACK 22 AUDIO
    TITLE "0:"
    INDEX 01 00:29:21
  TRACK 23 AUDIO
    TITLE "28:cjc123_0474"
    INDEX 01 00:29:70
  TRACK 24 AUDIO
    TITLE "0:"
    INDEX 01 00:31:06
  TRACK 25 AUDIO
    TITLE "29:cjc123_0475"
    INDEX 01 00:31:24
  TRACK 26 AUDIO
    TITLE "0:"
    INDEX 01 00:33:21
  TRACK 27 AUDIO
    TITLE "30:cjc123_0476"
    INDEX 01 00:33:24
  TRACK 28 AUDIO
    TITLE "0:"
    INDEX 01 00:34:32
  TRACK 29 AUDIO
    TITLE "31:cjc123_0477"
    INDEX 01 00:35:04
  TRACK 30 AUDIO
    TITLE "0:"
    INDEX 01 00:37:50
  TRACK 31 AUDIO
    TITLE "32:cjc123_0478"
    INDEX 01 00:38:16
  TRACK 32 AUDIO
    TITLE "0:"
    INDEX 01 00:41:59
  TRACK 33 AUDIO
    TITLE "28:cjc123_0479"
    INDEX 01 00:42:31
  TRACK 34 AUDIO
    TITLE "0:"
    INDEX 01 00:43:68
  TRACK 35 AUDIO
    TITLE "29:cjc123_0480"
    INDEX 01 00:44:07
  TRACK 36 AUDIO
    TITLE "0:"
    INDEX 01 00:45:47
  TRACK 37 AUDIO
    TITLE "30:cjc123_0481"
    INDEX 01 00:45:57
  TRACK 38 AUDIO
    TITLE "0:"
    INDEX 01 00:47:27
  TRACK 39 AUDIO
    TITLE "31:cjc123_0482"
    INDEX 01 00:48:04
  TRACK 40 AUDIO
    TITLE "0:"
    INDEX 01 00:51:42
  TRACK 41 AUDIO
    TITLE "32:cjc123_0483"
    INDEX 01 00:51:67
  TRACK 42 AUDIO
    TITLE "0:"
    INDEX 01 00:54:54
  TRACK 43 AUDIO
    TITLE "28:cjc123_0484"
    INDEX 01 00:55:24
  TRACK 44 AUDIO
    TITLE "0:"
    INDEX 01 00:56:14
  TRACK 45 AUDIO
    TITLE "29:cjc123_0485"
    INDEX 01 00:56:35
  TRACK 46 AUDIO
    TITLE "0:"
    INDEX 01 00:57:60
  TRACK 47 AUDIO
    TITLE "30:cjc123_0486"
    INDEX 01 00:57:66
  TRACK 48 AUDIO
    TITLE "0:"
    INDEX 01 00:58:67
  TRACK 49 AUDIO
    TITLE "31:cjc123_0487"
    INDEX 01 00:59:38
  TRACK 50 AUDIO
    TITLE "0:"
    INDEX 01 01:01:74
  TRACK 51 AUDIO
    TITLE "32:cjc123_0488"
    INDEX 01 01:02:34
  TRACK 52 AUDIO
    TITLE "0:"
    INDEX 01 01:05:03
  TRACK 53 AUDIO
    TITLE "28:cjc123_0489"
    INDEX 01 01:05:46
  TRACK 54 AUDIO
    TITLE "0:"
    INDEX 01 01:06:65
  TRACK 55 AUDIO
    TITLE "29:cjc123_0490"
    INDEX 01 01:07:08
  TRACK 56 AUDIO
    TITLE "0:"
    INDEX 01 01:08:50
  TRACK 57 AUDIO
    TITLE "30:cjc123_0491"
    INDEX 01 01:08:56
  TRACK 58 AUDIO
    TITLE "0:"
    INDEX 01 01:09:71
  TRACK 59 AUDIO
    TITLE "31:cjc123_0492"
    INDEX 01 01:10:47
  TRACK 60 AUDIO
    TITLE "0:"
    INDEX 01 01:13:00
  TRACK 61 AUDIO
    TITLE "32:cjc123_0493"
    INDEX 01 01:13:32
  TRACK 62 AUDIO
    TITLE "0:"
    INDEX 01 01:15:68
  TRACK 63 AUDIO
    TITLE "28:cjc123_0494"
    INDEX 01 01:16:44
  TRACK 64 AUDIO
    TITLE "0:"
    INDEX 01 01:17:41
  TRACK 65 AUDIO
    TITLE "29:cjc123_0495"
    INDEX 01 01:18:11
  TRACK 66 AUDIO
    TITLE "0:"
    INDEX 01 01:19:11
  TRACK 67 AUDIO
    TITLE "30:cjc123_0496"
    INDEX 01 01:19:28
  TRACK 68 AUDIO
    TITLE "0:"
    INDEX 01 01:20:38
  TRACK 69 AUDIO
    TITLE "31:cjc123_0497"
    INDEX 01 01:21:08
  TRACK 70 AUDIO
    TITLE "0:"
    INDEX 01 01:23:48
  TRACK 71 AUDIO
    TITLE "32:cjc123_0498"
    INDEX 01 01:24:10
  TRACK 72 AUDIO
    TITLE "0:"
    INDEX 01 01:26:48
  TRACK 73 AUDIO
    TITLE "28:cjc123_0499"
    INDEX 01 01:27:22
  TRACK 74 AUDIO
    TITLE "0:"
    INDEX 01 01:28:24
  TRACK 75 AUDIO
    TITLE "29:cjc123_0500"
    INDEX 01 01:28:35
  TRACK 76 AUDIO
    TITLE "0:"
    INDEX 01 01:29:35
  TRACK 77 AUDIO
    TITLE "30:cjc123_0501"
    INDEX 01 01:29:45
  TRACK 78 AUDIO
    TITLE "0:"
    INDEX 01 01:30:44
  TRACK 79 AUDIO
    TITLE "31:cjc123_0502"
    INDEX 01 01:31:22
  TRACK 80 AUDIO
    TITLE "0:"
    INDEX 01 01:35:06
  TRACK 81 AUDIO
    TITLE "32:cjc123_0503"
    INDEX 01 01:35:39
  TRACK 82 AUDIO
    TITLE "0:"
    INDEX 01 01:38:57
  TRACK 83 AUDIO
    TITLE "28:cjc123_0504"
    INDEX 01 01:39:33
  TRACK 84 AUDIO
    TITLE "0:"
    INDEX 01 01:40:35
  TRACK 85 AUDIO
    TITLE "29:cjc123_0505"
    INDEX 01 01:40:52
  TRACK 86 AUDIO
    TITLE "0:"
    INDEX 01 01:41:71
  TRACK 87 AUDIO
    TITLE "30:cjc123_0506"
    INDEX 01 01:42:06
  TRACK 88 AUDIO
    TITLE "0:"
    INDEX 01 01:43:05
  TRACK 89 AUDIO
    TITLE "31:cjc123_0507"
    INDEX 01 01:43:54
  TRACK 90 AUDIO
    TITLE "0:"
    INDEX 01 01:47:03
  TRACK 91 AUDIO
    TITLE "32:cjc123_0508"
    INDEX 01 01:47:35
  TRACK 92 AUDIO
    TITLE "0:"
    INDEX 01 01:50:45
  TRACK 93 AUDIO
    TITLE "28:cjc123_0509"
    INDEX 01 01:51:13
  TRACK 94 AUDIO
    TITLE "0:"
    INDEX 01 01:52:14
  TRACK 95 AUDIO
    TITLE "29:cjc123_0510"
    INDEX 01 01:52:44
  TRACK 96 AUDIO
    TITLE "0:"
    INDEX 01 01:53:67
  TRACK 97 AUDIO
    TITLE "30:cjc123_0511"
    INDEX 01 01:54:03
  TRACK 98 AUDIO
    TITLE "0:"
    INDEX 01 01:55:05
  TRACK 99 AUDIO
    TITLE "31:cjc123_0512"
    INDEX 01 01:55:69
  TRACK 100 AUDIO
    TITLE "0:"
    INDEX 01 01:58:32
  TRACK 101 AUDIO
    TITLE "32:cjc123_0513"
    INDEX 01 01:58:74
  TRACK 102 AUDIO
    TITLE "0:"
    INDEX 01 02:02:09
  TRACK 103 AUDIO
    TITLE "28:cjc123_0514"
    INDEX 01 02:02:60
  TRACK 104 AUDIO
    TITLE "0:"
    INDEX 01 02:03:65
  TRACK 105 AUDIO
    TITLE "29:cjc123_0515"
    INDEX 01 02:04:04
  TRACK 106 AUDIO
    TITLE "0:"
    INDEX 01 02:05:34
  TRACK 107 AUDIO
    TITLE "30:cjc123_0516"
    INDEX 01 02:05:46
  TRACK 108 AUDIO
    TITLE "0:"
    INDEX 01 02:06:42
  TRACK 109 AUDIO
    TITLE "31:cjc123_0517"
    INDEX 01 02:07:27
  TRACK 110 AUDIO
    TITLE "0:"
    INDEX 01 02:10:42
  TRACK 111 AUDIO
    TITLE "32:cjc123_0518"
    INDEX 01 02:11:00
  TRACK 112 AUDIO
    TITLE "0:"
    INDEX 01 02:14:02
  TRACK 113 AUDIO
    TITLE "28:cjc123_0519"
    INDEX 01 02:14:22
  TRACK 114 AUDIO
    TITLE "0:"
    INDEX 01 02:15:33
  TRACK 115 AUDIO
    TITLE "29:cjc123_0520"
    INDEX 01 02:15:41
  TRACK 116 AUDIO
    TITLE "0:"
    INDEX 01 02:16:60
  TRACK 117 AUDIO
    TITLE "30:cjc123_0521"
    INDEX 01 02:16:70
  TRACK 118 AUDIO
    TITLE "0:"
    INDEX 01 02:18:02
  TRACK 119 AUDIO
    TITLE "31:cjc123_0522"
    INDEX 01 02:18:51
  TRACK 120 AUDIO
    TITLE "0:"
    INDEX 01 02:21:47
  TRACK 121 AUDIO
    TITLE "32:cjc123_0523"
    INDEX 01 02:22:15
  TRACK 122 AUDIO
    TITLE "0:"
    INDEX 01 02:25:20
  TRACK 123 AUDIO
    TITLE "28:cjc123_0524"
    INDEX 01 02:25:67
  TRACK 124 AUDIO
    TITLE "0:"
    INDEX 01 02:27:16
  TRACK 125 AUDIO
    TITLE "29:cjc123_0525"
    INDEX 01 02:27:26
  TRACK 126 AUDIO
    TITLE "0:"
    INDEX 01 02:28:47
  TRACK 127 AUDIO
    TITLE "30:cjc123_0526"
    INDEX 01 02:28:55
  TRACK 128 AUDIO
    TITLE "0:"
    INDEX 01 02:29:60
  TRACK 129 AUDIO
    TITLE "31:cjc123_0527"
    INDEX 01 02:30:36
  TRACK 130 AUDIO
    TITLE "0:"
    INDEX 01 02:33:54
  TRACK 131 AUDIO
    TITLE "32:cjc123_0528"
    INDEX 01 02:34:42
  TRACK 132 AUDIO
    TITLE "0:"
    INDEX 01 02:37:34
  TRACK 133 AUDIO
    TITLE "28:cjc123_0529"
    INDEX 01 02:37:56
  TRACK 134 AUDIO
    TITLE "0:"
    INDEX 01 02:38:44
  TRACK 135 AUDIO
    TITLE "29:cjc123_0530"
    INDEX 01 02:38:65
  TRACK 136 AUDIO
    TITLE "0:"
    INDEX 01 02:40:39
  TRACK 137 AUDIO
    TITLE "30:cjc123_0531"
    INDEX 01 02:40:47
  TRACK 138 AUDIO
    TITLE "0:"
    INDEX 01 02:41:38
  TRACK 139 AUDIO
    TITLE "31:cjc123_0532"
    INDEX 01 02:42:32
  TRACK 140 AUDIO
    TITLE "0:"
    INDEX 01 02:45:07
  TRACK 141 AUDIO
    TITLE "32:cjc123_0533"
    INDEX 01 02:45:38
  TRACK 142 AUDIO
    TITLE "0:"
    INDEX 01 02:48:11
  TRACK 143 AUDIO
    TITLE "28:cjc123_0534"
    INDEX 01 02:48:40
  TRACK 144 AUDIO
    TITLE "0:"
    INDEX 01 02:49:51
  TRACK 145 AUDIO
    TITLE "29:cjc123_0535"
    INDEX 01 02:49:71
  TRACK 146 AUDIO
    TITLE "0:"
    INDEX 01 02:51:37
  TRACK 147 AUDIO
    TITLE "30:cjc123_0536"
    INDEX 01 02:51:44
  TRACK 148 AUDIO
    TITLE "0:"
    INDEX 01 02:52:50
  TRACK 149 AUDIO
    TITLE "31:cjc123_0537"
    INDEX 01 02:53:45
  TRACK 150 AUDIO
    TITLE "0:"
    INDEX 01 02:56:08
  TRACK 151 AUDIO
    TITLE "32:cjc123_0538"
    INDEX 01 02:56:53
  TRACK 152 AUDIO
    TITLE "0:"
    INDEX 01 02:59:48
